<svg xmlns="http://www.w3.org/2000/svg" viewBox="0 0 460 320" role="img" aria-label="Side-view diagram of an anchored boat with water depth D, bow height H, and rode length L marked.">
  <defs><marker id="measure-head" markerWidth="7" markerHeight="7" refX="3.5" refY="3.5" orient="auto"><path d="M0 3.5 7 0v7Z" fill="#52697c"/></marker></defs>
  <rect width="460" height="320" fill="#edf6fa"/>
  <rect y="141" width="460" height="129" fill="#cfe5f1"/>
  <path d="M0 141H460" stroke="#1d5c94" stroke-width="2"/>
  <rect y="270" width="460" height="26" fill="#d8cba3"/>
  <path d="M345 89h76l-11 52h-54Z" fill="#1d5c94" stroke="#133f68" stroke-width="2"/>
  <path d="M356 89h20" stroke="#133f68" stroke-width="4"/>
  <circle cx="356" cy="89" r="4" fill="#b85f24"/>
  <path d="M70 270 356 89" stroke="#b85f24" stroke-width="4"/>
  <rect x="188" y="176" width="84" height="24" rx="12" fill="#fff" stroke="#e2b994"/><text x="230" y="193" text-anchor="middle" font-family="sans-serif" font-size="12" font-weight="700" fill="#7c3f18">rode L</text>
  <path d="M48 145V266" stroke="#52697c" stroke-width="2" marker-start="url(#measure-head)" marker-end="url(#measure-head)"/>
  <rect x="15" y="191" width="66" height="32" rx="8" fill="#fff" stroke="#cbdbe6"/><text x="48" y="204" text-anchor="middle" font-family="sans-serif" font-size="11" fill="#52697c">depth</text><text x="48" y="218" text-anchor="middle" font-family="sans-serif" font-size="12" font-weight="700" fill="#133f68">D = 10 ft</text>
  <path d="M399 137V93" stroke="#52697c" stroke-width="2" marker-start="url(#measure-head)" marker-end="url(#measure-head)"/>
  <rect x="360" y="99" width="78" height="36" rx="8" fill="#fff" stroke="#cbdbe6"/><text x="399" y="113" text-anchor="middle" font-family="sans-serif" font-size="11" fill="#52697c">bow height</text><text x="399" y="129" text-anchor="middle" font-family="sans-serif" font-size="12" font-weight="700" fill="#133f68">H = 4 ft</text>
  <g transform="translate(69 278)" stroke="#384956" stroke-width="2.5" fill="none"><circle cy="-14" r="4" fill="#384956"/><path d="M0-10V7M-10 4Q0 16 10 4M-10 4l-4-6M10 4l4-6"/></g>
  <text x="230" y="314" text-anchor="middle" font-family="sans-serif" font-size="12" fill="#52697c">measure rode from bow chock to anchor</text>
</svg>
