<svg xmlns="http://www.w3.org/2000/svg" viewBox="0 0 420 260" role="img" aria-label="Side-by-side gasoline and diesel fueling scenarios with fill nozzles and enclosed engine compartments.">
  <defs><marker id="flow-head" markerWidth="7" markerHeight="7" refX="6" refY="3.5" orient="auto"><path d="M0 0 7 3.5 0 7Z" fill="#52697c"/></marker></defs>
  <rect width="420" height="260" fill="#f3ede2"/>
  <rect x="25" y="42" width="175" height="185" rx="8" fill="#fff7ed" stroke="#b85f24" stroke-width="2"/>
  <rect x="220" y="42" width="175" height="185" rx="8" fill="#eef6ed" stroke="#487347" stroke-width="2"/>
  <text x="112" y="29" font-family="sans-serif" font-size="13" font-weight="700" fill="#7c3f18" text-anchor="middle">GASOLINE</text>
  <text x="307" y="29" font-family="sans-serif" font-size="13" font-weight="700" fill="#355c35" text-anchor="middle">DIESEL</text>
  <g transform="translate(112 86)" stroke="#384956" stroke-width="3" fill="none">
    <path d="M-48-13H-6V19H-48Z" fill="#d7e0e7"/><path d="M-6-5Q22-5 22 20"/><circle cx="22" cy="28" r="8" fill="#b85f24"/>
  </g>
  <g transform="translate(307 86)" stroke="#384956" stroke-width="3" fill="none">
    <path d="M-48-13H-6V19H-48Z" fill="#d7e0e7"/><path d="M-6-5Q22-5 22 20"/><circle cx="22" cy="28" r="8" fill="#487347"/>
  </g>
  <g transform="translate(112 168)">
    <rect x="-57" y="-27" width="114" height="54" rx="5" fill="#dce7ee" stroke="#384956" stroke-width="2"/>
    <circle cx="-28" cy="8" r="4" fill="#b85f24"/><circle cx="-8" cy="15" r="4" fill="#b85f24"/><circle cx="13" cy="7" r="4" fill="#b85f24"/>
    <path d="M42 12V-10H65" fill="none" stroke="#52697c" stroke-width="3" stroke-dasharray="5 4" marker-end="url(#flow-head)"/>
    <circle cx="74" cy="-10" r="13" fill="#fff" stroke="#52697c" stroke-width="2"/><text x="74" y="-5" text-anchor="middle" font-family="sans-serif" font-size="16" font-weight="700" fill="#52697c">?</text>
  </g>
  <g transform="translate(307 168)">
    <rect x="-57" y="-27" width="114" height="54" rx="5" fill="#dce7ee" stroke="#384956" stroke-width="2"/>
    <circle cx="0" cy="0" r="13" fill="#487347" opacity=".25"/>
  </g>
  <text x="210" y="247" text-anchor="middle" font-family="sans-serif" font-size="11" fill="#52697c">compare the two enclosed-engine fueling scenarios</text>
</svg>
